<svg xmlns="http://www.w3.org/2000/svg" width="880" height="540" viewBox="0 0 880 540" fill="none">
  <rect width="880" height="540" rx="28" fill="#D9E2EC"/>
  <rect x="24" y="24" width="832" height="492" rx="20" fill="#0F1720"/>
  <text x="48" y="64" fill="#8FA3B5" font-family="ui-sans-serif, system-ui" font-size="12" letter-spacing="1.5">AIQ FOUNDRY · CARD FRAGMENT</text>
  <text x="48" y="100" fill="#F6F3EC" font-family="ui-sans-serif, system-ui" font-size="20">T&amp;E pulse · last 14 days</text>
  <rect x="48" y="128" width="240" height="110" rx="14" fill="#182230"/>
  <text x="64" y="160" fill="#8FA3B5" font-family="ui-sans-serif, system-ui" font-size="12">Aligned spend</text>
  <text x="64" y="200" fill="#F6F3EC" font-family="Georgia, serif" font-size="28">$128.4k</text>
  <rect x="304" y="128" width="240" height="110" rx="14" fill="#182230"/>
  <text x="320" y="160" fill="#8FA3B5" font-family="ui-sans-serif, system-ui" font-size="12">Conflicts</text>
  <text x="320" y="200" fill="#E07A5F" font-family="Georgia, serif" font-size="28">17</text>
  <rect x="560" y="128" width="248" height="110" rx="14" fill="#182230"/>
  <text x="576" y="160" fill="#8FA3B5" font-family="ui-sans-serif, system-ui" font-size="12">Ghost cards</text>
  <text x="576" y="200" fill="#E6C07B" font-family="Georgia, serif" font-size="28">9</text>
  <rect x="48" y="258" width="760" height="140" rx="14" fill="#182230"/>
  <polyline points="80,360 160,330 240,340 320,300 400,310 480,280 560,290 640,270 720,276 780,250" stroke="#3D9B8F" stroke-width="3" fill="none"/>
  <text x="64" y="286" fill="#8FA3B5" font-family="ui-sans-serif, system-ui" font-size="12">Daily aligned volume</text>
  <rect x="48" y="416" width="248" height="72" rx="12" fill="#1F4D4A"/>
  <text x="64" y="444" fill="#C9E4DC" font-family="ui-sans-serif, system-ui" font-size="12">Top supplier</text>
  <text x="64" y="468" fill="#F6F3EC" font-family="ui-sans-serif, system-ui" font-size="16">United Airlines</text>
  <rect x="312" y="416" width="248" height="72" rx="12" fill="#182230"/>
  <text x="328" y="444" fill="#8FA3B5" font-family="ui-sans-serif, system-ui" font-size="12">Virtual vs corp</text>
  <text x="328" y="468" fill="#F6F3EC" font-family="ui-sans-serif, system-ui" font-size="16">38% / 62%</text>
  <rect x="576" y="416" width="232" height="72" rx="12" fill="#182230"/>
  <text x="592" y="444" fill="#8FA3B5" font-family="ui-sans-serif, system-ui" font-size="12">Agent queue</text>
  <text x="592" y="468" fill="#F6F3EC" font-family="ui-sans-serif, system-ui" font-size="16">6 ready</text>
</svg>
